<svg width="95" height="28" viewBox="0 0 95 28" fill="none" xmlns="http://www.w3.org/2000/svg">
<g clipPath="url(#clip0_2680_19250)">
<path d="M43.3026 9.72718H47.2701V11.419C47.6626 10.8209 48.1916 10.3509 48.8571 10.0091C49.5226 9.65029 50.3075 9.47086 51.2119 9.47086C52.6624 9.47086 53.8484 9.94933 54.7699 10.9063C55.7084 11.8462 56.1777 13.2816 56.1777 15.2126V23.0563H52.2102V15.9047C52.2102 15.0332 51.9969 14.3326 51.5703 13.8028C51.1437 13.2731 50.5294 13.0082 49.7274 13.0082C48.9424 13.0082 48.3366 13.2816 47.91 13.8284C47.4834 14.3582 47.2701 15.0503 47.2701 15.9047V23.0563H43.3026V9.72718Z" fill="white"/>
<path d="M58.5755 9.72718H62.543V23.0563H58.5755V9.72718ZM58.5755 4.85695H62.543V8.31738H58.5755V4.85695Z" fill="white"/>
<path d="M70.5297 23.2101C69.2328 23.2101 68.2004 22.8683 67.4325 22.1847C66.6646 21.4841 66.2807 20.4075 66.2807 18.955V12.88H64.3097V9.72718H66.2807V6.31802H70.2481V9.72718H73.0381V12.88H70.2481V18.3142C70.2481 18.7072 70.3761 19.0404 70.6321 19.3139C70.888 19.5702 71.2891 19.6984 71.8351 19.6984C72.2447 19.6984 72.6627 19.63 73.0893 19.4933V22.518C72.8504 22.7572 72.4921 22.9366 72.0143 23.0563C71.5535 23.1588 71.0587 23.2101 70.5297 23.2101Z" fill="white"/>
<path d="M74.9233 9.72718H78.8907V23.0563H74.9233V9.72718ZM74.9233 4.85695H78.8907V8.31738H74.9233V4.85695Z" fill="white"/>
<path d="M87.0054 23.3126C85.9474 23.3126 84.9321 23.0477 83.9594 22.518C82.9868 21.9882 82.1933 21.2021 81.579 20.1597C80.9647 19.1173 80.6575 17.8613 80.6575 16.3917C80.6575 14.9221 80.9647 13.6661 81.579 12.6237C82.1933 11.5813 82.9868 10.7952 83.9594 10.2655C84.9321 9.73573 85.9474 9.47086 87.0054 9.47086C87.7221 9.47086 88.362 9.58193 88.9252 9.80408C89.5053 10.0091 89.9661 10.2484 90.3074 10.5218C90.6487 10.7952 90.862 11.0345 90.9473 11.2395H91.0241V9.72718H94.9915V23.0563H91.0241V21.5439H90.9473C90.862 21.749 90.6487 21.9882 90.3074 22.2616C89.9661 22.5351 89.5053 22.7828 88.9252 23.005C88.362 23.2101 87.7221 23.3126 87.0054 23.3126ZM84.5738 16.3917C84.5738 17.417 84.8895 18.2373 85.5208 18.8525C86.1693 19.4677 86.9372 19.7753 87.8245 19.7753C88.746 19.7753 89.5224 19.4762 90.1538 18.8781C90.8022 18.2629 91.1265 17.4341 91.1265 16.3917C91.1265 15.3493 90.8022 14.5291 90.1538 13.931C89.5224 13.3158 88.746 13.0082 87.8245 13.0082C86.9372 13.0082 86.1693 13.3158 85.5208 13.931C84.8895 14.5462 84.5738 15.3664 84.5738 16.3917Z" fill="white"/>
<path d="M36.8535 9.72717H40.821V23.0562H36.8535V9.72717ZM36.8535 4.85693H40.821V8.31737H36.8535V4.85693Z" fill="white"/>
<g clipPath="url(#clip1_2680_19250)">
<ellipse cx="14.1896" cy="13.9874" rx="14.1896" ry="13.9874" fill="white"/>
<path d="M15.2767 11.047C15.2965 9.83608 16.1623 8.81495 17.3454 8.58585V6.21631C16.1359 6.34068 15.0123 6.90361 14.1861 7.80691L14.0936 7.91164L14.0011 7.80691C13.1749 6.89706 12.0579 6.34068 10.8418 6.21631V8.58585C12.0249 8.81495 12.8907 9.83608 12.9105 11.0405V17.1214C12.8907 18.3324 12.0249 19.3535 10.8418 19.5826V21.9522C12.0513 21.8278 13.1749 21.2649 14.0011 20.3616L14.0936 20.2568L14.1861 20.3616C15.0123 21.2714 16.1293 21.8278 17.3454 21.9522V19.5826C16.1623 19.3535 15.2965 18.3324 15.2767 17.128V11.047Z" fill="black"/>
</g>
</g>
<defs>
<clipPath id="clip0_2680_19250">
<rect width="94.9916" height="27.9749" fill="white"/>
</clipPath>
<clipPath id="clip1_2680_19250">
<rect width="28.3792" height="27.9749" fill="white"/>
</clipPath>
</defs>
</svg>
